<mxfile host="app.diagrams.net" modified="2022-11-30T13:13:03.687Z" agent="5.0 (Windows NT 10.0; Win64; x64) AppleWebKit/537.36 (KHTML, like Gecko) Chrome/107.0.0.0 Safari/537.36" etag="-pzzHolWZ_wWd80_zuYR" version="20.6.0" type="gitlab">
  <diagram id="eRmdAnoN5ShOYcXJQHxn" name="Page-1">
    <mxGraphModel dx="1422" dy="758" grid="1" gridSize="10" guides="1" tooltips="1" connect="1" arrows="1" fold="1" page="1" pageScale="1" pageWidth="827" pageHeight="1169" math="0" shadow="0">
      <root>
        <mxCell id="0" />
        <mxCell id="1" parent="0" />
        <mxCell id="6wu3yoFN8BWzLtmSqigc-1" value="" style="shape=image;verticalLabelPosition=bottom;labelBackgroundColor=default;verticalAlign=top;aspect=fixed;imageAspect=0;image=https://www.upgrad.com/blog/wp-content/uploads/2020/12/1-4.png;" parent="1" vertex="1">
          <mxGeometry x="110" y="120" width="520" height="257" as="geometry" />
        </mxCell>
        <UserObject label="&lt;table style=&quot;box-sizing: border-box; margin: 25px auto; padding: 0px; border: 0px; font-size: 17px; vertical-align: baseline; border-collapse: collapse; border-spacing: 0px; overflow-x: auto; display: block; color: rgb(255, 255, 255); font-family: urw-din, sans-serif; font-style: normal; font-variant-ligatures: normal; font-variant-caps: normal; font-weight: 400; letter-spacing: 0.162px; orphans: 2; text-align: justify; text-transform: none; widows: 2; word-spacing: 0px; -webkit-text-stroke-width: 0px; background-color: rgb(19, 20, 23); text-decoration-thickness: initial; text-decoration-style: initial; text-decoration-color: initial;&quot;&gt;&lt;thead style=&quot;box-sizing: border-box; margin: 0px; padding: 0px; border: 0px; font-size: 17px; vertical-align: baseline;&quot;&gt;&lt;tr style=&quot;box-sizing: border-box; margin: 0px; padding: 0px; border: 0px; font-size: 17px; vertical-align: baseline;&quot;&gt;&lt;th style=&quot;box-sizing: border-box; margin: 0px; padding: 10px; border: 0px; font-size: 14pt; vertical-align: baseline; font-weight: 500; text-align: left; background-color: var(--color-black); color: var(--gfg-body-color);&quot;&gt;S.No&lt;/th&gt;&lt;th style=&quot;box-sizing: border-box; margin: 0px; padding: 10px; border: 0px; font-size: 14pt; vertical-align: baseline; font-weight: 500; text-align: left; background-color: var(--color-black); color: var(--gfg-body-color);&quot;&gt;TensorFlow&lt;/th&gt;&lt;th style=&quot;box-sizing: border-box; margin: 0px; padding: 10px; border: 0px; font-size: 14pt; vertical-align: baseline; font-weight: 500; text-align: left; background-color: var(--color-black); color: var(--gfg-body-color);&quot;&gt;Keras&lt;/th&gt;&lt;/tr&gt;&lt;/thead&gt;&lt;tbody style=&quot;box-sizing: border-box; margin: 0px; padding: 0px; border: 0px; font-size: 17px; vertical-align: baseline;&quot;&gt;&lt;tr style=&quot;box-sizing: border-box; margin: 0px; padding: 0px; border: 0px; font-size: 17px; vertical-align: baseline; background-color: var(--gfg-body-color);&quot;&gt;&lt;td style=&quot;box-sizing: border-box; margin: 0px; padding: 14px 10px; border: 0px; font-size: 12.5pt; vertical-align: baseline; font-weight: 400; text-align: left;&quot;&gt;1.&lt;/td&gt;&lt;td style=&quot;box-sizing: border-box; margin: 0px; padding: 14px 10px; border: 0px; font-size: 12.5pt; vertical-align: baseline; font-weight: 400; text-align: left;&quot;&gt;Tensorhigh-performanceFlow is written in &amp;nbsp;C++, CUDA, Python.&lt;/td&gt;&lt;td style=&quot;box-sizing: border-box; margin: 0px; padding: 14px 10px; border: 0px; font-size: 12.5pt; vertical-align: baseline; font-weight: 400; text-align: left;&quot;&gt;Keras is written in Python.&lt;/td&gt;&lt;/tr&gt;&lt;tr style=&quot;box-sizing: border-box; margin: 0px; padding: 0px; border: 0px; font-size: 17px; vertical-align: baseline; background-color: var(--gfg-darkgrey);&quot;&gt;&lt;td style=&quot;box-sizing: border-box; margin: 0px; padding: 14px 10px; border: 0px; font-size: 12.5pt; vertical-align: baseline; font-weight: 400; text-align: left;&quot;&gt;2.&lt;/td&gt;&lt;td style=&quot;box-sizing: border-box; margin: 0px; padding: 14px 10px; border: 0px; font-size: 12.5pt; vertical-align: baseline; font-weight: 400; text-align: left;&quot;&gt;TensorFlow is used for large datasets and high performance models.&lt;/td&gt;&lt;td style=&quot;box-sizing: border-box; margin: 0px; padding: 14px 10px; border: 0px; font-size: 12.5pt; vertical-align: baseline; font-weight: 400; text-align: left;&quot;&gt;Keras is usually used for small datasets.&lt;/td&gt;&lt;/tr&gt;&lt;tr style=&quot;box-sizing: border-box; margin: 0px; padding: 0px; border: 0px; font-size: 17px; vertical-align: baseline; background-color: var(--gfg-body-color);&quot;&gt;&lt;td style=&quot;box-sizing: border-box; margin: 0px; padding: 14px 10px; border: 0px; font-size: 12.5pt; vertical-align: baseline; font-weight: 400; text-align: left;&quot;&gt;3.&lt;/td&gt;&lt;td style=&quot;box-sizing: border-box; margin: 0px; padding: 14px 10px; border: 0px; font-size: 12.5pt; vertical-align: baseline; font-weight: 400; text-align: left;&quot;&gt;TensorFlow is a framework that offers both high and low-level APIs.&lt;/td&gt;&lt;td style=&quot;box-sizing: border-box; margin: 0px; padding: 14px 10px; border: 0px; font-size: 12.5pt; vertical-align: baseline; font-weight: 400; text-align: left;&quot;&gt;Keras is a high-Level API.&lt;/td&gt;&lt;/tr&gt;&lt;tr style=&quot;box-sizing: border-box; margin: 0px; padding: 0px; border: 0px; font-size: 17px; vertical-align: baseline; background-color: var(--gfg-darkgrey);&quot;&gt;&lt;td style=&quot;box-sizing: border-box; margin: 0px; padding: 14px 10px; border: 0px; font-size: 12.5pt; vertical-align: baseline; font-weight: 400; text-align: left;&quot;&gt;4.&lt;/td&gt;&lt;td style=&quot;box-sizing: border-box; margin: 0px; padding: 14px 10px; border: 0px; font-size: 12.5pt; vertical-align: baseline; font-weight: 400; text-align: left;&quot;&gt;TensorFlow is used for high-performance models.&lt;/td&gt;&lt;td style=&quot;box-sizing: border-box; margin: 0px; padding: 14px 10px; border: 0px; font-size: 12.5pt; vertical-align: baseline; font-weight: 400; text-align: left;&quot;&gt;Keras is used for low-performance models.&lt;/td&gt;&lt;/tr&gt;&lt;tr style=&quot;box-sizing: border-box; margin: 0px; padding: 0px; border: 0px; font-size: 17px; vertical-align: baseline; background-color: var(--gfg-body-color);&quot;&gt;&lt;td style=&quot;box-sizing: border-box; margin: 0px; padding: 14px 10px; border: 0px; font-size: 12.5pt; vertical-align: baseline; font-weight: 400; text-align: left;&quot;&gt;5.&lt;/td&gt;&lt;td style=&quot;box-sizing: border-box; margin: 0px; padding: 14px 10px; border: 0px; font-size: 12.5pt; vertical-align: baseline; font-weight: 400; text-align: left;&quot;&gt;In TensorFlow performing debugging leads to complexities.&amp;nbsp;&lt;/td&gt;&lt;td style=&quot;box-sizing: border-box; margin: 0px; padding: 14px 10px; border: 0px; font-size: 12.5pt; vertical-align: baseline; font-weight: 400; text-align: left;&quot;&gt;In Keras framework, there is only minimal requirement for debugging the simple networks.&lt;/td&gt;&lt;/tr&gt;&lt;tr style=&quot;box-sizing: border-box; margin: 0px; padding: 0px; border: 0px; font-size: 17px; vertical-align: baseline; background-color: var(--gfg-darkgrey);&quot;&gt;&lt;td style=&quot;box-sizing: border-box; margin: 0px; padding: 14px 10px; border: 0px; font-size: 12.5pt; vertical-align: baseline; font-weight: 400; text-align: left;&quot;&gt;6.&lt;/td&gt;&lt;td style=&quot;box-sizing: border-box; margin: 0px; padding: 14px 10px; border: 0px; font-size: 12.5pt; vertical-align: baseline; font-weight: 400; text-align: left;&quot;&gt;TensorFlow has a complex architecture and not easy to use.&lt;/td&gt;&lt;td style=&quot;box-sizing: border-box; margin: 0px; padding: 14px 10px; border: 0px; font-size: 12.5pt; vertical-align: baseline; font-weight: 400; text-align: left;&quot;&gt;Keras has a simple architecture and easy to use.&lt;/td&gt;&lt;/tr&gt;&lt;tr style=&quot;box-sizing: border-box; margin: 0px; padding: 0px; border: 0px; font-size: 17px; vertical-align: baseline; background-color: var(--gfg-body-color);&quot;&gt;&lt;td style=&quot;box-sizing: border-box; margin: 0px; padding: 14px 10px; border: 0px; font-size: 12.5pt; vertical-align: baseline; font-weight: 400; text-align: left;&quot;&gt;7.&lt;/td&gt;&lt;td style=&quot;box-sizing: border-box; margin: 0px; padding: 14px 10px; border: 0px; font-size: 12.5pt; vertical-align: baseline; font-weight: 400; text-align: left;&quot;&gt;TensorFlow was developed by the Google Brain team.&lt;/td&gt;&lt;td style=&quot;box-sizing: border-box; margin: 0px; padding: 14px 10px; border: 0px; font-size: 12.5pt; vertical-align: baseline; font-weight: 400; text-align: left;&quot;&gt;Keras was developed by FranÃ§ois Chollet while he was working on the research effort of project ONEIROS.&lt;/td&gt;&lt;/tr&gt;&lt;/tbody&gt;&lt;/table&gt;" link="https://www.geeksforgeeks.org/difference-between-tensorflow-and-keras/" id="BLUQx9atgZAGeK-jxghB-1">
          <mxCell style="text;whiteSpace=wrap;html=1;" vertex="1" parent="1">
            <mxGeometry y="500" width="826" height="660" as="geometry" />
          </mxCell>
        </UserObject>
      </root>
    </mxGraphModel>
  </diagram>
</mxfile>
